<svg width="1024" height="1024" viewBox="0 0 1024 1024" xmlns="http://www.w3.org/2000/svg">
  <!-- Black rounded square -->
  <rect x="0" y="0" width="1024" height="1024" rx="180" fill="#0B0B0B"/>
  <!-- White “FJ” monogram -->
  <g fill="#FFFFFF">
    <!-- F -->
    <path d="M260 270h280c22 0 40 18 40 40s-18 40-40 40H340v82h150c22 0 40 18 40 40s-18 40-40 40H340v162c0 22-18 40-40 40h-40c-22 0-40-18-40-40V310c0-22 18-40 40-40z"/>
    <!-- J -->
    <path d="M724 270c22 0 40 18 40 40v350c0 106-86 192-192 192H458c-22 0-40-18-40-40s18-40 40-40h114c62 0 112-50 112-112V350c0-22 18-40 40-40z"/>
  </g>
</svg>
