<svg viewBox="0 0 24 24" xmlns="http://www.w3.org/2000/svg" fill="currentColor">
  <path d="M12 .5a11.5 11.5 0 0 0-3.64 22.42c.58.11.79-.25.79-.56
  0-.28-.01-1.02-.02-2-3.2.7-3.88-1.54-3.88-1.54-.53-1.36-1.3-1.72-1.3-1.72-1.06-.72.08-.71.08-.71
  1.17.08 1.78 1.2 1.78 1.2 1.04 1.78 2.73 1.27 3.39.97.11-.76.41-1.28.75-1.57-2.55-.29-5.23-1.28-5.23-5.7
  0-1.26.45-2.29 1.19-3.1-.12-.29-.52-1.45.11-3.03 0 0 .98-.31 3.2 1.18A11.1 11.1 0 0 1 12 6.84c.99.01 1.99.13 2.93.38
  2.21-1.49 3.19-1.18 3.19-1.18.63 1.58.23 2.74.11 3.03.74.81 1.18 1.84 1.18 3.1 0 4.43-2.69 5.4-5.25 5.69.42.36.8 1.06.8 2.14
  0 1.54-.01 2.78-.01 3.16 0 .31.21.67.8.56A11.5 11.5 0 0 0 12 .5z"></path>
</svg>
